<?xml version="1.0" standalone="no"?>
<!DOCTYPE svg PUBLIC "-//W3C//DTD SVG 20010904//EN"
 "http://www.w3.org/TR/2001/REC-SVG-20010904/DTD/svg10.dtd">
<svg version="1.0" xmlns="http://www.w3.org/2000/svg"
 width="938.000000pt" height="1280.000000pt" viewBox="0 0 938.000000 1280.000000"
 preserveAspectRatio="xMidYMid meet">
<g transform="translate(0.000000,1280.000000) scale(0.100000,-0.100000)"
fill="#000000" stroke="none">
<path d="M5055 12788 c-208 -51 -322 -104 -411 -193 -144 -142 -183 -336 -119
-592 l28 -113 -21 -132 c-38 -238 -44 -300 -52 -533 l-7 -230 -56 -160 c-97
-279 -160 -569 -193 -883 -9 -86 -18 -158 -19 -160 -2 -2 -29 -10 -61 -18
-181 -48 -311 -173 -378 -364 -40 -115 -43 -248 -6 -359 42 -130 152 -268 269
-337 29 -17 29 -19 35 -123 21 -377 53 -699 100 -1021 13 -91 21 -169 16 -174
-5 -5 -144 -58 -310 -117 -267 -96 -309 -109 -364 -108 -97 2 -104 6 -191 121
-69 92 -118 150 -282 338 -18 20 -52 50 -75 66 -24 15 -72 51 -108 79 -99 78
-196 145 -209 145 -7 0 -62 -29 -122 -65 -60 -36 -178 -99 -262 -141 -139 -70
-626 -301 -688 -327 -23 -9 -32 -5 -80 31 -30 22 -99 62 -154 89 -61 30 -156
91 -245 157 -202 151 -451 316 -478 316 -5 0 -26 -31 -46 -69 -49 -94 -95
-151 -261 -321 -146 -151 -212 -230 -260 -315 -16 -27 -33 -51 -37 -53 -30
-13 22 -104 88 -155 52 -39 62 -54 141 -211 47 -94 153 -294 236 -445 156
-287 317 -606 317 -630 0 -8 -22 -35 -48 -60 -158 -152 -151 -344 15 -386 53
-14 50 -3 37 -126 -5 -42 -2 -64 11 -90 22 -43 53 -77 86 -94 21 -11 28 -24
33 -61 3 -26 16 -62 28 -82 27 -44 98 -89 154 -98 24 -3 48 -12 53 -18 22 -26
278 -689 486 -1261 71 -193 126 -317 278 -630 104 -214 214 -441 243 -502 29
-62 59 -113 66 -113 7 0 262 86 568 192 442 152 568 192 621 196 l66 4 96
-123 c53 -68 149 -185 214 -261 387 -448 415 -479 426 -470 222 171 365 261
724 456 l142 77 71 -7 c39 -3 73 -10 76 -15 16 -26 521 -1735 514 -1742 -4 -5
-54 3 -111 17 -133 32 -218 40 -297 27 -193 -31 -291 -146 -316 -368 l-12
-108 -2204 -3 c-2033 -2 -2205 -3 -2222 -19 -25 -22 -23 -65 5 -91 l23 -22
2273 0 2272 0 -5 33 c-30 190 -5 327 71 399 47 45 98 61 193 61 133 0 302 -48
470 -133 42 -21 60 -26 60 -17 0 8 -131 449 -290 982 -160 532 -288 970 -285
973 8 8 576 9 581 1 2 -5 83 -501 178 -1103 96 -602 177 -1100 181 -1106 4 -6
76 -10 200 -10 l193 0 4 127 c4 142 19 187 78 236 106 90 356 48 646 -109 47
-26 87 -44 90 -41 3 3 -15 68 -39 144 -84 255 -178 650 -292 1228 -96 485
-138 726 -129 734 5 4 86 26 180 49 94 23 234 62 310 88 77 25 145 47 152 48
10 1 13 -109 16 -534 3 -515 7 -604 41 -1045 23 -290 73 -741 91 -809 8 -32
24 -83 36 -113 l20 -54 326 5 c180 3 495 8 701 12 211 3 383 10 393 15 10 5
25 21 34 34 15 23 14 26 -7 56 l-22 31 -663 -7 -664 -8 -15 37 c-28 66 -89
648 -122 1156 -17 278 -25 1187 -10 1262 l8 37 146 48 146 48 24 65 c32 86 87
301 107 420 37 220 46 368 56 915 5 303 15 638 22 745 6 107 13 231 14 275 2
79 3 83 54 160 127 195 203 420 229 684 33 321 -21 705 -164 1166 l-47 150 23
15 c13 8 54 37 92 64 l70 49 -6 136 c-4 75 -16 181 -27 236 -42 200 -148 476
-245 635 -27 45 -41 84 -56 162 -33 169 -50 353 -51 533 -1 167 0 172 36 295
61 207 110 440 146 700 6 41 13 163 16 270 9 296 -44 861 -102 1093 -37 150
-100 275 -188 375 -24 27 -34 51 -43 104 -54 324 -425 558 -1044 660 -117 19
-172 22 -439 22 -237 0 -333 -4 -430 -17 -158 -22 -396 -70 -511 -102 -48 -14
-97 -25 -107 -25 -13 0 -32 18 -52 50 -62 97 -145 153 -279 190 -75 21 -141
24 -206 8z m241 -139 c122 -46 198 -166 198 -315 1 -74 -3 -88 -34 -150 -58
-114 -154 -161 -316 -152 -60 3 -77 8 -98 27 -31 29 -35 90 -11 148 29 70 15
113 -36 113 -36 0 -54 -19 -72 -77 -48 -150 -18 -252 90 -304 41 -20 63 -24
148 -23 208 1 333 73 408 233 26 55 31 79 35 168 l5 103 66 20 c211 62 495
112 752 131 432 31 882 -39 1195 -186 241 -112 385 -275 385 -435 1 -61 1 -62
58 -120 109 -110 172 -270 210 -527 60 -404 80 -870 47 -1125 -43 -337 -147
-771 -187 -783 -31 -10 -116 23 -143 56 -35 42 -41 81 -40 274 1 165 2 173 34
260 27 75 33 109 37 206 7 139 -10 229 -62 338 -92 192 -277 262 -458 173
-197 -97 -289 -352 -267 -737 5 -88 4 -112 -7 -121 -17 -14 -94 -6 -105 10 -4
6 -8 47 -8 91 0 280 -63 817 -129 1120 -94 426 -220 649 -424 752 -114 57
-201 75 -362 77 -260 2 -498 -60 -904 -237 -203 -87 -306 -115 -387 -102 -64
9 -95 43 -161 176 -214 427 -187 726 78 859 174 88 332 108 465 59z m1077
-885 c215 -48 331 -168 426 -438 110 -313 189 -844 207 -1398 7 -188 8 -197
28 -202 12 -3 95 -6 185 -6 l164 0 -7 43 c-21 150 -28 256 -23 372 12 256 74
398 203 461 64 31 142 36 191 11 158 -82 223 -400 123 -604 -46 -94 -104 -127
-156 -89 -22 16 -20 18 21 32 18 6 33 20 39 36 8 22 5 33 -19 63 -43 57 -56
116 -56 247 0 92 -4 121 -15 133 -20 20 -68 19 -85 -1 -22 -26 -24 -204 -4
-294 24 -107 24 -105 -10 -108 -16 -2 -36 -8 -42 -14 -51 -42 55 -183 164
-219 20 -6 55 -9 79 -5 24 3 44 2 44 -2 1 -4 2 -59 4 -123 7 -207 43 -286 159
-344 38 -19 81 -35 96 -35 14 0 31 -4 37 -8 7 -4 13 -69 17 -172 7 -185 17
-279 48 -456 12 -67 19 -129 16 -138 -15 -38 -345 -274 -572 -408 -600 -355
-1315 -608 -2053 -728 -86 -14 -137 -19 -143 -13 -6 6 -17 54 -25 107 -16 109
-30 142 -74 179 -46 39 -85 42 -218 17 -206 -38 -625 -152 -765 -207 -62 -25
-58 -40 -106 342 -52 404 -83 816 -63 828 5 4 45 -3 88 -14 258 -68 516 12
729 226 112 112 246 308 286 419 39 107 -83 146 -127 40 -27 -64 -113 -199
-179 -281 -117 -146 -276 -255 -412 -283 -171 -36 -408 31 -550 155 -235 206
-193 592 79 731 74 38 172 43 296 15 145 -33 220 -41 290 -31 144 20 287 126
356 263 60 120 79 208 80 387 1 202 -10 240 -73 240 -54 0 -60 -18 -60 -200 0
-134 -3 -180 -20 -243 -37 -140 -104 -233 -206 -284 -77 -40 -155 -41 -309 -8
l-126 28 0 53 c0 136 60 494 120 719 69 259 205 602 317 799 l51 90 133 1
c153 1 142 -2 415 116 271 116 457 174 674 212 66 11 266 6 333 -9z m-1675
-176 l33 -63 -57 -102 c-31 -57 -61 -103 -67 -103 -16 0 11 312 30 343 8 13
27 -9 61 -75z m3606 -3288 c101 -187 180 -454 201 -686 8 -87 9 -85 -150 -181
-378 -227 -919 -436 -1535 -592 -314 -79 -831 -177 -1118 -212 -121 -14 -113
-19 -137 86 -65 286 -96 429 -98 461 -2 37 -1 38 38 45 22 4 110 19 195 34
908 157 1822 542 2464 1037 49 38 94 67 100 65 6 -2 24 -27 40 -57z m-3550
-880 c-11 -11 -206 -70 -228 -70 -22 1 31 24 114 51 92 30 131 36 114 19z
m3660 -330 c52 -175 96 -363 123 -525 14 -87 18 -162 18 -355 -1 -215 -3 -257
-23 -347 -61 -279 -169 -480 -362 -673 -180 -180 -305 -256 -698 -424 -303
-130 -529 -203 -553 -179 -4 4 1 43 12 86 44 172 41 327 -9 427 -21 41 -27 62
-19 67 6 4 61 24 123 44 62 21 136 50 166 65 513 259 679 785 493 1562 -14 57
-25 107 -25 112 0 4 71 36 157 71 87 35 241 105 343 155 138 68 188 89 196 80
7 -6 32 -81 58 -166z m-3266 129 c130 -65 183 -176 227 -479 20 -136 16 -248
-12 -311 -11 -24 -42 -71 -70 -104 -75 -89 -86 -116 -81 -194 4 -52 15 -89 52
-170 67 -146 83 -251 38 -251 -8 0 -70 19 -136 42 -152 53 -216 56 -299 14
l-55 -29 -48 23 c-78 38 -120 88 -144 172 -42 145 -52 173 -72 200 -31 44 -74
61 -143 58 -134 -8 -190 -4 -225 14 -120 62 -232 261 -217 387 8 62 39 122 79
152 18 14 76 45 128 70 54 26 126 72 168 106 82 68 101 72 165 39 32 -17 60
-22 114 -23 66 0 74 2 102 29 16 16 33 42 36 57 4 16 11 31 16 35 5 3 21 23
34 44 89 141 213 184 343 119z m-4497 -45 c10 -13 11 -29 1 -85 -7 -38 -12
-91 -12 -118 0 -77 39 -227 84 -326 40 -87 41 -93 39 -185 -2 -102 -22 -211
-38 -212 -12 -1 -221 377 -353 640 -79 157 -94 194 -83 202 27 16 177 23 230
10 59 -14 66 -11 75 31 6 33 22 59 36 59 4 0 13 -7 21 -16z m6897 -281 c13
-25 48 -170 66 -274 82 -471 4 -831 -228 -1065 -184 -184 -451 -286 -823 -314
-168 -13 -388 -4 -409 17 -9 9 -14 35 -14 72 0 193 -116 375 -301 471 -46 24
-87 47 -90 52 -3 5 -11 46 -18 91 -7 45 -32 176 -57 291 -24 115 -44 218 -44
228 0 22 -1 21 225 54 542 77 1200 230 1590 368 85 30 92 31 103 9z m-6083
-62 c111 -65 104 -47 174 -406 97 -490 151 -778 151 -802 0 -34 -31 -29 -84
15 -292 242 -312 268 -367 493 -17 67 -52 190 -78 273 -58 179 -66 229 -51
301 29 138 139 193 255 126z m864 5 c39 -20 58 -53 77 -133 9 -37 40 -117 67
-178 65 -139 72 -206 33 -275 -72 -124 -86 -163 -96 -270 -18 -174 -33 -221
-87 -273 -61 -57 -118 -54 -233 13 -96 56 -102 57 -149 14 -29 -25 -42 -32
-46 -23 -2 8 -27 134 -55 280 -27 146 -63 332 -80 414 -16 81 -30 152 -30 158
0 5 15 6 35 3 l35 -7 0 61 c0 51 4 65 25 85 31 32 44 31 108 -4 28 -16 75 -32
102 -36 28 -3 57 -8 66 -11 12 -3 23 13 44 63 39 91 77 133 122 133 18 0 47
-7 62 -14z m3582 -1233 c102 -108 141 -266 103 -424 -7 -29 -12 -27 120 -45
45 -6 50 -9 67 -49 35 -78 50 -170 47 -283 l-3 -107 -89 -3 -89 -3 -68 -63
c-127 -117 -260 -169 -434 -168 -268 1 -599 151 -707 321 -35 56 -36 95 -4
116 35 23 93 10 199 -47 239 -127 314 -150 351 -109 16 17 18 27 10 48 -7 22
-24 33 -79 53 -39 15 -126 56 -195 92 -69 37 -152 73 -184 82 -66 17 -126 66
-177 145 -36 56 -41 147 -10 175 17 16 24 16 84 2 89 -21 221 -74 406 -162
155 -75 187 -84 209 -62 17 17 15 64 -4 83 -17 17 -230 122 -334 165 -30 13
-66 33 -80 45 -14 13 -43 34 -65 47 -87 54 -126 120 -97 165 4 6 42 20 86 31
l78 21 102 -36 c120 -41 407 -157 600 -242 77 -34 141 -61 144 -61 3 0 -32 52
-90 131 -19 26 -45 209 -33 230 10 16 82 -30 136 -88z m-4935 20 c26 -38 48
-77 48 -88 1 -26 -61 -58 -159 -81 -69 -16 -75 -16 -99 0 -58 37 -6 146 104
219 41 28 56 20 106 -50z m2715 -246 c48 -32 72 -82 99 -200 12 -56 29 -118
37 -137 16 -38 31 -135 98 -635 46 -340 51 -395 36 -395 -11 0 -81 168 -114
275 -31 100 -57 222 -57 271 0 67 -21 113 -68 152 -36 29 -56 61 -107 167
-111 228 -143 355 -111 440 10 25 29 54 43 65 36 28 100 27 144 -3z m-2551
-17 c25 -13 60 -72 60 -101 0 -55 -59 -97 -171 -123 -73 -17 -101 -10 -118 33
-42 99 131 243 229 191z m5645 -262 c72 -85 82 -213 32 -406 -19 -72 -36 -109
-72 -162 -78 -114 -59 -114 -230 0 l-150 100 -1 157 c0 129 -5 173 -22 237
-12 43 -19 82 -16 87 3 5 60 9 127 10 67 1 147 4 177 9 110 15 115 14 155 -32z
m-5519 -41 c50 -44 30 -98 -50 -137 -67 -32 -136 -22 -168 24 -17 24 -8 66 15
76 163 68 166 68 203 37z m6970 -94 c-3 -60 -9 -284 -13 -500 -3 -215 -9 -396
-12 -400 -10 -15 -123 -80 -197 -114 -351 -159 -816 -278 -1416 -363 -268 -38
-645 -79 -686 -74 l-27 3 -6 345 c-5 348 -11 400 -53 501 -6 13 5 23 50 43 63
29 166 100 203 140 22 23 32 26 95 26 l71 0 227 -152 c126 -83 230 -149 231
-147 2 2 25 36 52 74 71 103 84 115 121 115 52 0 192 30 294 62 107 34 520
208 651 274 103 51 275 165 344 228 76 68 79 65 71 -61z m-4204 -100 c15 -16
38 -55 53 -88 48 -110 71 -118 143 -51 69 65 127 81 186 54 54 -24 61 -49 63
-223 1 -173 1 -171 63 -325 91 -224 72 -338 -65 -389 -63 -24 -265 -47 -319
-37 -40 8 -39 4 -55 141 -6 50 -36 276 -66 503 -30 227 -55 419 -55 427 0 23
24 18 52 -12z m-2052 -548 c17 -9 33 -28 39 -47 17 -55 131 -909 131 -987 0
-33 -37 -71 -70 -71 -32 0 -63 31 -86 85 -14 34 -15 61 -9 182 7 134 6 144
-14 177 -12 18 -37 46 -56 60 -49 38 -60 61 -45 97 7 16 26 39 42 51 28 19 30
25 25 63 -4 23 -20 85 -37 137 -43 136 -37 225 17 257 24 14 29 13 63 -4z
m362 -188 c45 -26 57 -45 108 -162 24 -58 21 -76 -32 -158 l-31 -49 16 -52
c35 -111 8 -188 -73 -205 -27 -5 -39 -15 -51 -40 -9 -20 -19 -29 -23 -23 -3 6
-18 100 -31 209 -28 222 -53 405 -61 445 -4 19 1 32 18 48 30 29 99 23 160
-13z m5872 -225 c8 -13 -12 -339 -29 -482 -20 -161 -57 -340 -95 -461 l-30
-97 -156 -52 c-85 -28 -170 -60 -187 -70 -87 -51 -445 -155 -721 -210 -257
-52 -764 -116 -846 -108 -31 3 -35 7 -57 72 -51 153 -116 307 -134 316 -29 16
-65 12 -84 -10 -14 -16 -16 -29 -11 -70 7 -55 9 -55 -45 -39 -52 16 -89 -7
-89 -54 0 -17 4 -38 9 -45 4 -8 52 -30 106 -51 102 -38 130 -60 107 -83 -10
-10 -80 -14 -278 -16 -330 -5 -357 0 -271 48 85 47 164 106 242 180 44 41 98
91 121 110 80 68 95 122 103 387 3 116 9 214 12 217 3 3 80 13 170 21 902 84
1632 248 2047 460 90 45 107 51 116 37z m-4934 -254 c36 -8 55 -18 61 -32 4
-12 24 -137 44 -279 29 -209 34 -261 24 -273 -24 -29 -111 -66 -155 -66 -96 0
-214 124 -214 224 0 53 57 333 75 368 17 32 68 70 97 70 9 0 40 -5 68 -12z
m244 -101 c39 -51 61 -109 101 -262 47 -178 53 -306 17 -335 -24 -20 -53 -17
-76 9 -11 12 -27 97 -51 272 -53 376 -50 349 -32 349 9 0 27 -15 41 -33z
m3403 -1175 c7 -4 33 -118 57 -253 100 -541 203 -1033 293 -1391 26 -103 45
-190 42 -193 -3 -3 -39 6 -79 20 -123 42 -223 58 -324 53 -97 -6 -127 -15
-194 -62 -75 -53 -132 -173 -132 -281 0 -23 -5 -46 -12 -53 -17 -17 -142 -16
-156 1 -16 19 -336 2047 -325 2058 5 5 86 16 179 24 222 20 508 57 634 84 3 0
10 -3 17 -7z"/>
<path d="M5631 10954 c-27 -34 -26 -47 2 -77 16 -17 48 -30 112 -45 125 -30
244 -90 292 -148 75 -91 82 -96 111 -89 59 14 68 67 23 137 -58 92 -191 173
-365 223 -115 33 -149 33 -175 -1z"/>
<path d="M4925 10906 c-198 -81 -373 -220 -414 -329 -30 -79 80 -131 120 -55
44 86 180 190 331 254 85 37 118 63 118 94 0 23 -29 57 -55 64 -11 3 -55 -9
-100 -28z"/>
<path d="M5569 10216 c-128 -87 -67 -286 87 -286 157 0 215 199 84 287 -47 32
-123 31 -171 -1z m115 -102 c9 -8 16 -22 16 -29 0 -16 -27 -45 -42 -45 -15 0
-48 30 -48 43 0 15 31 47 46 47 7 0 20 -7 28 -16z"/>
<path d="M4650 10129 c-53 -31 -73 -65 -78 -129 -3 -45 0 -61 20 -89 38 -57
72 -75 133 -75 39 0 62 5 82 20 99 73 98 211 -2 269 -51 31 -107 32 -155 4z
m110 -114 c20 -24 -3 -65 -35 -65 -32 0 -55 41 -35 65 7 8 23 15 35 15 12 0
28 -7 35 -15z"/>
<path d="M6025 9409 c-95 -12 -127 -23 -148 -51 -24 -32 -17 -72 15 -89 17 -9
41 -9 105 1 110 17 119 9 67 -62 -256 -355 -559 -590 -914 -706 -236 -78 -450
-95 -711 -56 -40 5 -50 3 -68 -15 -26 -26 -27 -72 -3 -93 32 -29 130 -42 312
-42 125 0 204 5 275 18 362 66 685 237 958 509 143 143 317 367 317 409 0 26
33 23 70 -8 17 -15 48 -52 68 -83 33 -50 41 -56 71 -56 25 0 39 7 54 27 20 26
20 28 3 72 -21 55 -94 138 -150 170 -81 48 -210 70 -321 55z"/>
</g>
</svg>
