<?xml version="1.0" standalone="no"?>
<!DOCTYPE svg PUBLIC "-//W3C//DTD SVG 20010904//EN"
 "http://www.w3.org/TR/2001/REC-SVG-20010904/DTD/svg10.dtd">
<svg version="1.0" xmlns="http://www.w3.org/2000/svg"
 width="1280.000000pt" height="946.000000pt" viewBox="0 0 1280.000000 946.000000"
 preserveAspectRatio="xMidYMid meet">
<g transform="translate(0.000000,946.000000) scale(0.100000,-0.100000)"
fill="#000000" stroke="none">
<path d="M6725 9449 c-515 -73 -701 -162 -1015 -485 -112 -115 -319 -374 -355
-445 l-14 -27 77 26 c67 22 95 26 217 26 163 1 219 -11 360 -78 345 -163 539
-415 564 -731 l6 -80 45 -2 c263 -14 510 -40 526 -56 7 -7 -550 -1164 -571
-1186 -11 -12 -18 -11 -47 6 -118 72 -277 108 -443 100 -134 -6 -230 -29 -380
-92 -49 -20 -96 -39 -102 -42 -27 -11 -11 27 31 74 44 49 70 64 178 103 101
37 148 119 95 168 -27 25 -94 30 -158 10 -22 -6 -42 -9 -45 -5 -3 3 19 37 50
75 83 103 105 170 70 220 -11 15 -25 22 -50 22 -44 0 -92 -44 -159 -144 -86
-130 -85 -113 6 178 39 125 69 237 67 249 -2 17 -11 23 -36 25 -29 3 -40 -3
-71 -37 -21 -23 -59 -84 -85 -137 -26 -53 -51 -92 -56 -88 -4 5 -3 68 2 139
11 128 6 226 -12 255 -25 41 -119 -89 -144 -199 -27 -119 -47 -284 -50 -409
-2 -68 -6 -125 -8 -128 -3 -2 -19 18 -36 45 -34 56 -61 77 -113 86 -71 13 -84
-37 -43 -174 15 -51 58 -104 119 -147 l30 -21 -69 -284 c-38 -156 -75 -294
-83 -307 -21 -34 -38 -36 -71 -12 -18 14 -46 22 -73 23 -80 3 -73 40 19 100
l65 42 -36 6 c-21 3 -40 9 -44 13 -10 10 45 62 93 88 63 33 59 39 -33 53 -55
9 -54 22 2 36 25 6 45 15 45 20 0 5 -54 9 -121 9 -91 0 -120 3 -117 12 5 14
55 34 109 43 26 4 36 10 35 22 0 10 12 20 34 28 32 11 33 13 15 22 -11 6 -38
16 -60 23 -22 7 -50 21 -63 31 -13 10 -48 23 -78 30 -30 7 -57 16 -60 21 -3 5
10 30 29 56 43 58 67 105 67 129 0 71 -49 144 -142 212 -55 41 -59 47 -54 75
10 49 62 148 98 186 19 19 66 63 106 98 90 79 101 109 78 203 -22 87 -72 186
-97 194 -14 5 -28 0 -42 -13 -25 -22 -47 -19 -47 7 0 38 79 86 203 122 l77 22
-31 19 c-43 26 -27 42 77 74 46 15 84 30 84 34 0 4 -19 11 -42 14 -95 14 -90
35 26 99 47 26 86 52 86 57 0 10 -38 21 -145 44 -93 19 -107 25 -103 45 2 12
39 25 141 50 75 18 137 37 137 41 0 4 -21 15 -46 25 -41 16 -45 20 -41 44 14
67 16 63 -58 91 -75 29 -94 54 -53 68 13 5 65 17 116 27 50 10 92 21 92 26 0
22 -215 61 -335 62 -165 0 -391 -54 -474 -114 -24 -17 -45 -28 -49 -25 -11 12
-3 228 13 312 28 149 92 274 204 396 35 39 48 59 39 62 -7 3 -50 12 -96 21
-97 19 -96 20 -153 -68 -89 -137 -181 -490 -197 -757 l-7 -105 -46 3 c-72 5
-87 -14 -99 -123 -6 -49 -18 -139 -27 -198 l-16 -109 -83 -68 c-92 -77 -129
-119 -116 -132 12 -12 129 -44 190 -53 91 -12 86 9 72 -326 -6 -162 -15 -321
-18 -354 l-7 -60 -125 -6 c-141 -6 -182 -19 -233 -72 l-32 -34 -105 10 c-58 5
-296 10 -530 11 -345 0 -450 -3 -557 -17 l-131 -17 -59 30 c-75 39 -181 55
-259 41 -91 -17 -204 -101 -204 -152 0 -27 69 -57 148 -65 88 -10 94 -16 51
-61 -20 -21 -34 -44 -32 -51 3 -7 -2 -30 -11 -52 -14 -36 -14 -41 0 -55 12
-11 14 -25 9 -51 -8 -43 11 -76 56 -100 41 -21 75 -14 185 39 201 98 241 104
348 57 73 -33 181 -48 433 -61 255 -13 500 -7 612 16 41 8 77 12 80 10 3 -3
-1 -20 -7 -38 -29 -81 -6 -102 105 -95 40 3 76 2 78 -3 3 -4 -17 -37 -45 -73
-76 -101 -120 -203 -182 -416 l-13 -45 -85 -16 c-70 -14 -88 -22 -108 -45 -50
-61 -93 -130 -107 -175 -13 -37 -25 -52 -64 -78 -114 -74 -373 -409 -806
-1045 l-108 -159 -91 7 c-50 3 -253 9 -451 12 -470 8 -789 -13 -927 -61 -56
-19 -66 -19 -117 5 -41 20 -42 22 -39 63 3 39 5 42 33 45 17 1 40 5 52 7 29 7
93 63 93 81 0 16 -81 69 -150 99 -68 30 -189 28 -255 -5 -66 -33 -69 -56 -14
-111 41 -41 41 -42 29 -80 -10 -30 -11 -45 -2 -64 19 -41 14 -51 -27 -64 -76
-22 -134 -119 -166 -276 -29 -147 -55 -708 -55 -1222 l0 -252 -43 -30 c-87
-60 -127 -137 -153 -299 -12 -75 -13 -110 -5 -157 6 -33 13 -80 17 -104 3 -24
19 -82 35 -128 75 -222 184 -325 433 -408 151 -51 259 -63 365 -43 44 9 108
30 140 46 57 28 62 29 98 16 21 -7 53 -13 71 -14 63 0 72 -12 72 -93 0 -131
48 -256 195 -512 134 -232 256 -370 384 -431 150 -71 400 -101 581 -70 240 42
456 210 656 511 l97 147 46 -5 c25 -4 107 -15 181 -26 426 -64 570 -71 1467
-71 793 0 965 5 1142 35 47 8 87 13 89 10 3 -2 5 -51 6 -108 1 -95 3 -107 34
-170 63 -127 216 -253 443 -362 128 -61 210 -85 382 -111 123 -18 164 -15 321
23 117 28 238 107 362 235 178 183 245 305 263 478 l6 65 150 -1 c108 0 187
-7 280 -23 149 -26 429 -94 595 -145 63 -19 116 -33 118 -32 2 2 -7 32 -19 67
-33 93 -34 255 -1 318 12 25 22 48 22 51 0 4 -55 13 -122 19 -68 7 -127 16
-131 20 -5 5 21 39 57 76 141 147 245 351 290 569 30 144 17 230 -46 301 -79
90 -218 135 -416 137 -68 1 -125 5 -127 9 -3 4 6 31 19 60 41 89 50 171 43
407 -5 209 -5 212 16 227 96 67 171 177 219 318 92 275 83 465 -26 565 -51 47
-96 62 -187 62 -60 0 -73 4 -119 35 -74 50 -187 76 -388 90 -116 8 -108 -1
-81 92 19 62 4 110 -46 148 l-40 30 -1 128 c0 145 -11 127 101 147 68 12 78 6
90 -56 16 -86 79 -187 144 -230 29 -19 69 -31 153 -45 143 -24 182 -37 337
-111 165 -79 234 -104 302 -113 78 -10 115 1 160 46 32 32 44 56 74 156 63
204 83 250 134 301 65 65 252 165 358 192 46 12 65 35 56 68 -5 19 -10 21 -43
16 -52 -8 -58 8 -21 58 17 23 31 47 31 54 0 6 -18 24 -41 38 -34 23 -40 31
-34 49 4 12 8 38 9 57 l1 35 -67 3 -67 3 -29 53 c-35 60 -93 116 -124 116 -11
0 -38 -17 -59 -39 -37 -37 -39 -41 -39 -105 0 -42 8 -89 22 -128 l21 -62 -84
-80 c-93 -88 -196 -168 -290 -222 -74 -44 -93 -43 -211 15 -152 75 -179 115
-66 99 87 -13 217 -4 262 17 21 10 50 36 64 58 26 40 27 45 33 241 5 196 6
203 34 261 34 71 178 221 270 281 44 29 61 46 63 65 5 40 -19 53 -56 32 -45
-26 -58 -9 -37 45 23 57 17 74 -35 93 -40 15 -45 20 -42 46 6 75 -17 92 -94
67 l-52 -16 -62 51 c-90 75 -138 81 -177 22 -41 -61 -25 -144 49 -247 l32 -44
-18 -38 c-54 -113 -170 -279 -270 -386 l-36 -39 -83 6 c-100 8 -208 37 -290
79 -86 43 -309 182 -330 206 -10 11 -31 26 -47 32 -25 10 -37 8 -87 -14 -31
-15 -90 -54 -129 -86 -40 -33 -75 -60 -78 -60 -3 0 -6 11 -6 24 0 14 -4 28
-10 31 -5 3 -58 -15 -117 -40 -180 -77 -286 -116 -294 -108 -5 5 -11 34 -15
65 l-7 56 239 178 c262 195 463 353 624 492 58 50 111 91 117 92 7 0 24 -22
38 -50 57 -113 140 -167 267 -177 211 -15 367 78 527 316 60 91 136 229 129
236 -2 2 -26 -10 -53 -27 -88 -56 -271 -99 -289 -70 -3 5 8 60 24 123 38 149
75 356 90 499 8 74 20 129 32 154 43 85 69 171 70 228 1 65 -9 82 -61 106 -35
17 -36 20 -44 87 -41 374 -246 827 -504 1117 -112 126 -303 289 -414 355 -34
21 -36 36 -9 121 11 36 20 92 20 129 0 58 -3 67 -29 94 -34 33 -79 39 -103 12
-22 -25 -62 -108 -82 -170 -10 -29 -22 -56 -27 -59 -6 -3 -36 14 -67 38 -201
154 -380 221 -707 263 -130 16 -178 17 -270 4z m672 -1934 c126 -63 303 -271
483 -568 52 -87 53 -88 34 -107 -10 -10 -181 -129 -379 -265 -198 -136 -420
-292 -494 -347 -73 -55 -139 -102 -147 -105 -14 -5 -214 183 -214 201 0 6 138
281 307 613 346 679 309 628 410 578z m1265 -982 c43 -40 98 -117 98 -140 0
-27 -39 -11 -96 41 -72 65 -93 99 -74 121 18 22 25 19 72 -22z m-4932 -1423
c0 -14 9 -33 20 -43 14 -11 18 -25 15 -44 -3 -16 -16 -109 -30 -208 -14 -99
-30 -191 -36 -204 -10 -24 -10 -24 -49 19 -22 24 -40 50 -40 59 0 25 81 421
92 450 7 20 11 23 18 11 6 -8 10 -26 10 -40z m3270 -991 l35 -1 -35 -9 c-19
-4 -79 -11 -134 -15 -83 -6 -98 -5 -94 7 5 14 127 30 173 23 11 -2 36 -4 55
-5z"/>
<path d="M11063 7954 c-98 -35 -150 -142 -178 -366 -4 -27 -10 -48 -16 -48 -5
0 -39 25 -76 55 -128 103 -283 165 -414 165 l-66 0 -18 -62 c-11 -38 -19 -97
-19 -148 0 -71 4 -94 26 -141 48 -105 141 -170 288 -203 112 -25 226 -99 447
-288 129 -111 209 -169 311 -227 74 -41 225 -111 242 -111 12 0 134 156 215
275 117 171 167 301 151 387 -11 61 -123 236 -197 308 l-68 66 30 45 c16 24
34 59 40 77 10 29 8 36 -11 57 -29 31 -74 49 -104 41 -27 -7 -69 -69 -81 -118
-4 -16 -12 -28 -17 -28 -6 0 -62 49 -124 110 -162 156 -183 170 -258 169 -34
0 -80 -7 -103 -15z"/>
<path d="M10585 6039 c-146 -10 -172 -21 -222 -96 -70 -105 -88 -162 -87 -283
0 -124 25 -208 74 -252 44 -41 124 -39 208 3 63 31 75 45 195 218 35 50 52 51
132 8 66 -35 57 -17 85 -186 10 -60 18 -80 45 -110 l34 -36 123 0 c201 1 312
47 410 171 l49 63 50 -15 c105 -31 255 -87 310 -114 57 -29 92 -64 104 -101
10 -30 28 -17 44 29 11 35 11 45 0 58 -16 20 -151 88 -317 160 -70 30 -132 60
-138 65 -6 5 -14 30 -18 55 -13 96 -83 198 -170 249 -121 70 -633 134 -911
114z m373 -256 c-3 -49 -6 -58 -23 -61 -11 -1 -33 9 -50 22 l-30 24 34 36 c19
20 43 36 53 36 17 0 19 -7 16 -57z"/>
<path d="M12487 4686 c-108 -38 -161 -87 -155 -142 3 -28 -23 -49 -87 -71 -18
-6 -32 -18 -35 -33 -9 -39 -48 -42 -93 -7 -48 37 -99 49 -155 35 -53 -13 -78
-44 -87 -108 -4 -28 -10 -50 -15 -50 -4 0 -21 7 -36 15 -46 24 -76 18 -133
-25 -29 -22 -57 -40 -61 -40 -26 0 -65 26 -131 85 -71 64 -145 112 -156 101
-13 -13 147 -208 194 -237 37 -23 40 -23 196 7 115 21 121 19 114 -55 -2 -32
-14 -79 -25 -104 -28 -62 -66 -82 -156 -79 -130 3 -171 -37 -169 -168 0 -41 7
-93 16 -116 11 -29 13 -64 9 -132 -4 -87 -3 -94 21 -131 44 -66 157 -131 226
-131 69 0 197 106 282 232 43 63 78 102 122 135 63 46 229 133 255 133 7 0 32
-16 55 -35 44 -38 98 -59 137 -53 24 3 23 4 -13 26 -49 31 -69 72 -70 141 l0
57 92 109 c51 61 103 131 116 156 31 59 40 129 26 202 -9 51 -8 63 8 95 18 36
18 38 1 73 -22 41 -99 115 -136 129 -40 16 -84 11 -157 -14z"/>
<path d="M10975 2491 c-99 -25 -130 -66 -131 -171 0 -81 -7 -88 -49 -51 -31
28 -64 43 -84 36 -27 -8 -50 -68 -57 -146 l-7 -71 -51 -33 c-205 -132 -228
-215 -79 -281 29 -13 53 -27 53 -31 0 -5 -19 -46 -42 -91 -36 -70 -43 -93 -43
-142 0 -51 4 -63 29 -89 38 -40 137 -83 192 -84 55 0 87 21 129 86 21 33 43
52 75 66 105 45 176 124 206 229 9 30 19 106 24 170 4 65 15 142 24 172 24 82
21 184 -9 278 -40 126 -96 174 -180 153z"/>
<path d="M9847 1606 c-41 -15 -56 -25 -104 -70 l-33 -30 -64 23 c-74 26 -161
29 -204 7 -38 -20 -82 -72 -82 -97 0 -29 26 -64 70 -93 22 -15 40 -30 40 -34
0 -4 -34 -13 -75 -19 -91 -13 -138 -44 -167 -111 -19 -42 -19 -47 -5 -77 11
-23 32 -41 72 -60 30 -15 57 -31 60 -35 3 -4 -11 -29 -31 -54 -80 -106 -111
-196 -83 -248 27 -50 156 -75 304 -59 l90 10 55 -38 c80 -56 135 -81 188 -88
89 -10 130 49 139 199 l6 89 56 29 c125 63 184 127 207 227 20 85 18 139 -6
163 -25 25 -52 25 -129 1 -36 -11 -61 -15 -61 -9 0 6 18 37 40 70 59 89 72
152 49 244 -8 29 -21 51 -37 62 -23 15 -28 15 -82 -5 -48 -17 -60 -18 -81 -8
-40 22 -92 26 -132 11z"/>
<path d="M10871 1294 c-38 -32 -55 -90 -46 -159 l6 -52 -53 -35 c-29 -19 -75
-56 -101 -82 -43 -41 -48 -51 -45 -84 3 -32 8 -40 41 -56 21 -10 69 -23 107
-30 38 -6 72 -15 77 -19 4 -5 8 -48 9 -95 1 -146 29 -174 127 -129 107 49 156
116 157 215 l0 52 35 0 c55 0 77 49 94 218 12 116 -2 175 -54 221 -30 26 -44
31 -83 30 -26 0 -56 -4 -67 -8 -14 -6 -35 -1 -67 15 -61 31 -99 30 -137 -2z"/>
</g>
</svg>
